<svg width="800" height="800" viewBox="0 0 30.667 30.667" xmlns="http://www.w3.org/2000/svg" xmlns:xlink="http://www.w3.org/1999/xlink" id="Capa_1" xml:space="preserve" overflow="hidden"><style>
.MsftOfcThm_Background1_Fill_v2 {
 fill:#FFFFFF; 
}
</style>
<g><path d="M30.667 14.939C30.667 23.189 23.927 29.877 15.611 29.877 12.972 29.877 10.493 29.202 8.335 28.02L0 30.667 2.717 22.65C1.347 20.4 0.558 17.758 0.558 14.938 0.559 6.688 7.297 0 15.613 0 23.928 0.002 30.667 6.689 30.667 14.939ZM15.61 2.382C8.631 2.382 2.954 8.016 2.954 14.942 2.954 17.69 3.85 20.234 5.365 22.304L3.785 26.967 8.647 25.422C10.647 26.734 13.04 27.498 15.61 27.498 22.589 27.498 28.268 21.865 28.268 14.939 28.27 8.016 22.59 2.382 15.61 2.382ZM23.214 18.38C23.12 18.229 22.874 18.137 22.506 17.953 22.139 17.769 20.322 16.884 19.985 16.764 19.645 16.641 19.399 16.579 19.153 16.946 18.91 17.313 18.202 18.137 17.985 18.383 17.77 18.628 17.555 18.659 17.186 18.478 16.817 18.292 15.627 17.908 14.217 16.661 13.12 15.689 12.379 14.492 12.165 14.125 11.948 13.759 12.143 13.561 12.326 13.379 12.491 13.214 12.695 12.951 12.88 12.736 13.065 12.523 13.126 12.372 13.249 12.127 13.37 11.882 13.309 11.669 13.218 11.484 13.126 11.3 12.389 9.5 12.08 8.767 11.773 8.035 11.466 8.156 11.25 8.156 11.035 8.156 10.789 8.126 10.543 8.126 10.297 8.126 9.897 8.215 9.56 8.582 9.223 8.949 8.269 9.834 8.269 11.636 8.269 13.44 9.59 15.179 9.775 15.423 9.961 15.666 12.329 19.485 16.08 20.951 19.833 22.416 19.833 21.927 20.509 21.865 21.187 21.803 22.693 20.98 22.999 20.126 23.307 19.268 23.307 18.533 23.214 18.38Z" class="MsftOfcThm_Background1_Fill_v2" fill="#FFFFFF"/></g></svg>